
<svg width="17.000000" height="17.000000" viewBox="0 0 17 17" fill="none" xmlns="http://www.w3.org/2000/svg" xmlns:xlink="http://www.w3.org/1999/xlink">
	<rect id="vuesax/linear/call" width="17.000000" height="17.000000" fill="#FFFFFF" fill-opacity="0"/>
	<path id="Vector" d="M15.385 13.7559C15.2646 14.011 15.1089 14.2517 14.9033 14.4785C14.5564 14.8608 14.1738 15.1372 13.7417 15.3142C13.3167 15.4912 12.8564 15.5835 12.3606 15.5835C11.6379 15.5835 10.866 15.4133 10.0513 15.0664C9.23682 14.7192 8.42212 14.2517 7.61475 13.6638C6.80005 13.0688 6.02808 12.4102 5.29126 11.6804C4.56177 10.9438 3.90308 10.1716 3.31519 9.36426C2.73413 8.55664 2.26685 7.74927 1.92676 6.94873C1.58667 6.14136 1.41675 5.36914 1.41675 4.63257C1.41675 4.15088 1.50171 3.69043 1.67163 3.26538C1.8418 2.8335 2.11084 2.43677 2.48633 2.08252C2.9397 1.63623 3.43555 1.41675 3.95972 1.41675C4.15796 1.41675 4.35645 1.45923 4.53345 1.54419C4.71753 1.62915 4.88062 1.75684 5.00806 1.94092L6.65137 4.25708C6.77881 4.43433 6.87085 4.59717 6.93457 4.75293C6.99854 4.90186 7.03394 5.05054 7.03394 5.18506C7.03394 5.35498 6.98413 5.52515 6.88501 5.68799C6.79297 5.85083 6.65845 6.021 6.48853 6.19092L5.9502 6.75049C5.87207 6.82837 5.83667 6.92041 5.83667 7.03394C5.83667 7.09058 5.84375 7.14014 5.85791 7.19678C5.87915 7.25342 5.90039 7.2959 5.91455 7.33838C6.04224 7.57227 6.26172 7.87671 6.57349 8.24512C6.89209 8.61353 7.23218 8.98877 7.60059 9.36426C7.98291 9.73975 8.35132 10.0867 8.72681 10.4055C9.09497 10.7173 9.39966 10.9297 9.64038 11.0571C9.67603 11.0713 9.71851 11.0925 9.76807 11.1138C9.82471 11.135 9.88135 11.1421 9.94507 11.1421C10.0654 11.1421 10.1575 11.0996 10.2356 11.0217L10.7739 10.4905C10.9509 10.3135 11.1208 10.1787 11.2839 10.0938C11.4468 9.99463 11.6096 9.94507 11.7869 9.94507C11.9214 9.94507 12.063 9.97339 12.2188 10.0371C12.3748 10.1008 12.5376 10.1931 12.7146 10.3135L15.0593 11.978C15.2434 12.1055 15.3708 12.2542 15.4487 12.4314C15.5198 12.6084 15.5623 12.7854 15.5623 12.9839C15.5623 13.2388 15.5056 13.501 15.385 13.7559Z" stroke="#021425" strokeOpacity="0.700000" strokeWidth="1.500000"/>
</svg>
