
<svg width="15.000000" height="15.000000" viewBox="0 0 15 15" fill="none" xmlns="http://www.w3.org/2000/svg" xmlns:xlink="http://www.w3.org/1999/xlink">
	<path id="Path-3" d="M1.0271 6.46936C5.05273 4.35925 7.73267 2.95703 9.07837 2.27673C12.9087 0.347046 13.7139 0.013916 14.2314 0C14.3464 0 14.5994 0.02771 14.772 0.194336C14.9099 0.33313 14.9446 0.513672 14.9675 0.652466C14.9905 0.79126 15.0134 1.08289 14.9905 1.30493C14.7834 3.94275 13.8862 10.3427 13.4263 13.2858C13.2307 14.5353 12.8511 14.9518 12.4832 14.9934C11.678 15.0767 11.0684 14.3547 10.2976 13.7439C9.07837 12.786 8.3999 12.1891 7.21509 11.245C5.84644 10.1622 6.73193 9.56519 7.51416 8.59338C7.72119 8.34351 11.2524 4.45642 11.3213 4.10925C11.3328 4.06763 11.3328 3.90112 11.2522 3.81775C11.1719 3.7345 11.0569 3.76221 10.9648 3.79004C10.8381 3.81775 8.90601 5.37268 5.14478 8.44067C4.59277 8.8988 4.09814 9.12097 3.64941 9.10706C3.15479 9.09326 2.21167 8.77393 1.49854 8.49622C0.635986 8.16309 -0.0541992 7.98254 0.00341797 7.39954C0.0378418 7.09412 0.382812 6.7887 1.0271 6.46936Z" fill="#24A9EC" fillOpacity="1.000000" fillRule="evenodd"/>
</svg>
